<svg width="108" height="108" viewBox="0 0 108 108" fill="none" xmlns="http://www.w3.org/2000/svg">
<g clip-path="url(#clip0_3_564)">
<rect x="-0.00012207" width="108" height="108" fill="white"/>
<g clip-path="url(#clip1_3_564)">
<path fill-rule="evenodd" clip-rule="evenodd" d="M16.8109 40.575H92.1891C92.8252 40.575 93.404 40.8347 93.8222 41.2528C94.2403 41.671 94.5 42.2487 94.5 42.8858V65.1142C94.5 65.7502 94.2403 66.329 93.8222 66.7472C93.404 67.1653 92.8263 67.425 92.1891 67.425H16.8109C16.1748 67.425 15.596 67.1653 15.1779 66.7472C14.7597 66.329 14.5 65.7513 14.5 65.1142V42.8858C14.5 42.2498 14.7597 41.671 15.1779 41.2528C15.596 40.8347 16.1748 40.575 16.8109 40.575Z" fill="#F0F0F0"/>
<path fill-rule="evenodd" clip-rule="evenodd" d="M93.6197 58.8011V65.1142C93.6197 65.901 92.976 66.5447 92.1892 66.5447H16.8109C16.0241 66.5447 15.3804 65.901 15.3804 65.1142V58.8011H93.6197Z" fill="#FECF22"/>
<path d="M93.6197 50.1078H15.3804V57.8933H93.6197V50.1078Z" fill="#006AB4"/>
<path fill-rule="evenodd" clip-rule="evenodd" d="M16.8109 41.4553H92.1892C92.976 41.4553 93.6197 42.099 93.6197 42.8858V49.2H15.3804V42.8858C15.3804 42.099 16.0241 41.4553 16.8109 41.4553Z" fill="#D61627"/>
<path fill-rule="evenodd" clip-rule="evenodd" d="M27.3341 46.8902C32.5809 45.3354 37.0222 44.411 41.2543 43.8718C45.0442 43.3887 48.6491 43.2193 52.5061 43.183V43.1698H56.6458V43.1841C60.4708 43.2226 64.0527 43.3964 67.8183 43.8806C72.0296 44.4209 76.4499 45.3442 81.6659 46.8891C82.2392 47.0586 82.796 47.3271 83.2164 47.7464C83.6587 48.1887 83.936 48.7532 83.936 49.4729V58.5249C83.936 59.2446 83.6587 59.8091 83.2164 60.2515C82.7971 60.6707 82.2392 60.9392 81.6659 61.1087C76.4499 62.6537 72.0296 63.5769 67.8183 64.1172C64.0516 64.6014 60.4708 64.7753 56.6458 64.8138V64.827H55.2912V64.8226H54.8576H54.7751V64.827H54.2249V64.8226H53.4546V64.8204C49.2829 64.805 45.4524 64.6542 41.4513 64.1546C37.1762 63.6209 32.6799 62.6911 27.3341 61.1076C26.7608 60.9381 26.204 60.6696 25.7836 60.2504C25.3413 59.808 25.064 59.2435 25.064 58.5238V49.474C25.064 48.7543 25.3413 48.1898 25.7836 47.7475C26.2029 47.3282 26.7608 47.0597 27.3341 46.8902Z" fill="#E6E6E6"/>
<path fill-rule="evenodd" clip-rule="evenodd" d="M63.5928 57.0603C63.267 56.6036 63.5796 55.8432 63.8095 55.4185C64.0538 54.9684 64.4148 54.3962 64.987 54.5062C65.2489 55.4482 64.4093 57.1516 63.5928 57.0603ZM45.8134 54.4468C46.2371 55.5087 44.845 57.452 44.3741 56.9227C43.9922 56.4925 44.8846 54.2289 45.8134 54.4468ZM48.7427 56.9238L48.5776 56.5618C48.1166 56.6663 47.3881 57.0944 46.872 56.9711C46.5914 56.3285 48.6161 52.0996 49.0024 50.8044L47.9867 50.8495C47.6995 51.3227 47.1702 52.9777 46.9116 53.3211C45.1146 53.1329 44.3664 53.6512 43.6346 54.6097C42.4439 56.1656 43.3177 56.3219 42.4219 56.8314C41.6329 57.2804 41.7463 57.0262 41.6868 56.9623C41.36 56.6773 42.2778 54.7131 42.3658 54.285C42.4791 53.7271 42.1897 53.2815 41.6703 53.3112C41.1851 53.3398 40.823 53.6842 40.4764 53.8702C39.2769 54.5172 40.406 52.0171 37.1388 54.3257C36.8868 54.504 36.253 54.8704 36.1287 54.9948C36.1562 54.7901 37.097 52.7599 37.2885 52.2834C37.6571 51.3667 38.0269 50.4193 38.3416 49.4872C37.1554 49.4069 33.623 50.0198 32.549 50.9783C30.5177 52.7896 32.9397 55.1841 34.5397 53.3442C34.1534 53.0669 33.5614 53.3354 33.4701 52.6223C33.3919 52.0105 33.612 51.6033 33.9421 51.348C34.346 51.0377 36.1177 50.7186 36.7438 50.6008C36.6789 50.931 36.4038 51.5549 36.2717 51.9235C35.5719 53.8746 34.7146 56.8523 32.2244 56.9293C30.9226 56.97 30.5496 56.3879 30.0874 55.4977C29.8024 55.8201 29.6846 56.487 29.8497 56.9733C29.9972 57.4091 30.3405 57.7106 30.7476 57.9065C32.6932 58.8451 34.4109 57.2649 35.7919 56.1942C36.1408 55.9246 37.4371 54.6096 38.1017 54.9365C38.4736 55.677 37.3952 57.2319 37.371 58.0022L38.653 58.0297C38.8841 57.3948 39.0712 56.7015 39.2912 56.0347C39.4783 55.468 39.7391 54.4589 40.483 54.9706C40.768 55.731 39.5576 57.3233 40.2211 57.857C40.9089 58.4105 42.4538 57.3024 42.8214 57.0801C43.1086 57.4927 43.1031 58.0088 43.8437 58.1343C44.4346 58.2344 45.0332 57.9549 45.3688 57.6787C45.5779 57.9362 45.5262 58.1948 46.0104 58.1497C46.4857 58.1046 47.8998 57.1802 48.7449 56.9238H48.7427ZM73.0706 55.8388C73.0134 55.1709 73.7496 54.2487 74.2734 54.2729C74.4472 54.6658 74.1424 55.0982 73.9476 55.3282C73.7232 55.5934 73.4888 55.8806 73.0706 55.8388ZM53.7793 54.2498L53.9256 54.6999C54.3262 54.5876 54.7719 54.3257 55.1724 54.4358C55.2979 55.1984 54.1413 57.2925 53.973 58.1794L55.2351 58.153C55.4838 57.7348 55.7457 56.7566 55.9383 56.2438C56.1386 55.7112 56.3719 54.6702 57.1058 54.9255C57.5383 55.7805 56.362 57.3156 56.2739 58.1508L57.7144 58.164C57.9807 57.3959 58.2822 56.4418 58.5947 55.6837C58.7498 55.3073 58.9138 54.7186 59.4728 54.8748C60.11 55.0531 59.0106 56.246 59.0228 57.3013C59.0283 57.7733 59.3485 58.1882 59.8194 58.142C60.4467 58.0804 61.4976 57.222 62.0368 57.101C62.2833 57.6567 62.335 58.0033 62.9941 58.1068C63.6676 58.2124 64.0891 57.8933 64.5215 57.6424C64.5347 57.6556 64.549 57.6765 64.5567 57.6864L64.6536 57.8229C64.7856 58.0143 64.8604 58.164 65.1818 58.1959C66.2448 58.3026 67.8139 56.6069 68.4269 55.7981C69.1124 54.8936 68.8329 54.9618 69.7133 54.8848C69.5196 55.7178 68.571 57.0493 69.3732 57.8548C70.1765 58.6625 71.7798 57.5731 72.2673 57.2881C72.7163 57.7843 72.954 58.2245 74.0225 58.175C74.8643 58.1365 75.3309 57.7975 76.0054 57.6017C76.8263 58.9497 79.508 57.6237 79.4057 56.8028C79.0591 56.7367 78.6552 57.2187 78.2998 57.4102C77.8079 57.6743 77.3083 57.5059 77.2973 56.9348C77.2918 56.652 77.9785 54.5524 78.1149 54.2905L78.927 54.2828L79.1966 53.3585L78.6255 53.3475C78.7322 52.3791 79.2461 51.5494 79.42 50.6922L78.2789 50.7373L77.3633 53.2715L76.527 53.3189L76.33 54.2696L76.987 54.2586C76.8472 55.1599 76.3256 56.3769 75.8668 56.9491C75.3925 57.5423 73.6912 57.8955 73.3831 56.8589C73.7815 56.4132 74.4769 56.3109 75.0194 55.3711C76.3807 53.0163 73.6637 52.729 72.5545 54.3687C71.8624 55.3931 72.0758 55.7112 72.1144 56.9238C70.7465 57.6842 70.2657 57.8361 70.3889 56.4958C70.5133 55.14 70.7201 55.3414 70.9457 55.1004C71.1185 54.9156 71.1834 54.5832 70.9952 54.4017C70.7774 54.1761 70.4065 54.3764 70.0005 54.2311C69.743 53.594 70.1831 53.4883 70.3603 53.1395C70.1259 53.0845 69.9377 53.1164 69.7045 53.0801C69.1443 52.9931 69.6461 52.9788 69.2709 52.7621C68.9485 52.8864 68.9265 52.8985 68.8131 53.2605C68.4863 54.3026 68.6051 54.5293 68.034 55.3304C67.7237 55.7662 66.6728 57.233 65.9509 56.9634C65.6175 56.5233 66.8896 53.9472 67.047 53.3013C65.7518 53.2044 65.9454 53.4509 65.7639 53.6512C64.5666 53.1131 63.9372 53.5709 63.2021 54.2234C62.1501 55.1577 62.1039 56.5024 61.9752 56.6509C61.656 56.8578 61.0079 57.1439 60.5347 56.9722C60.3983 56.433 61.2357 54.8539 61.3721 54.2113C61.5163 53.5334 61.1256 53.1725 60.4423 53.3486C59.9295 53.4806 59.7325 53.956 59.2604 54.0176C58.8632 53.7381 58.8456 53.1516 58.0335 53.2914C57.4602 53.3893 57.4238 53.8372 56.7757 53.9659C56.7625 53.9472 56.7526 53.9219 56.746 53.9065L56.6745 53.7282C56.6426 53.6391 56.571 53.3607 56.4269 53.2837C55.7721 53.2 54.4648 54.044 53.7793 54.2454V54.2498Z" fill="#006AB4"/>
<path fill-rule="evenodd" clip-rule="evenodd" d="M51.2264 53.8757C51.6665 53.8757 52.066 54.0539 52.3543 54.3433C52.6426 54.6317 52.822 55.0311 52.822 55.4713C52.822 55.9114 52.6437 56.3109 52.3543 56.5992C52.066 56.8875 51.6665 57.0669 51.2264 57.0669C50.7862 57.0669 50.3867 56.8886 50.0984 56.5992C49.8101 56.3109 49.6308 55.9114 49.6308 55.4713C49.6308 55.0311 49.809 54.6317 50.0984 54.3433C50.3867 54.055 50.7862 53.8757 51.2264 53.8757ZM51.2264 52.5002C50.4055 52.5002 49.6627 52.8325 49.1257 53.3706C48.5876 53.9087 48.2552 54.6515 48.2552 55.4713C48.2552 56.2911 48.5876 57.035 49.1257 57.572C49.6638 58.109 50.4066 58.4424 51.2264 58.4424C52.0462 58.4424 52.79 58.1101 53.3271 57.572C53.8652 57.0339 54.1975 56.2911 54.1975 55.4713C54.1975 54.6515 53.8652 53.9076 53.3271 53.3706C52.7889 52.8325 52.0462 52.5002 51.2264 52.5002ZM53.0938 53.6039C52.6162 53.1263 51.9559 52.8303 51.2264 52.8303C50.4968 52.8303 49.8365 53.1263 49.359 53.6039C48.8814 54.0814 48.5854 54.7417 48.5854 55.4713C48.5854 56.2008 48.8814 56.8611 49.359 57.3387C49.8365 57.8162 50.4968 58.1123 51.2264 58.1123C51.9559 58.1123 52.6162 57.8162 53.0938 57.3387C53.5713 56.8611 53.8674 56.2008 53.8674 55.4713C53.8674 54.7417 53.5713 54.0814 53.0938 53.6039ZM51.2264 53.1879C50.5958 53.1879 50.0247 53.4432 49.6121 53.857C49.1983 54.2696 48.943 54.8407 48.943 55.4713C48.943 56.1018 49.1983 56.6729 49.6121 57.0856C50.0258 57.4993 50.5958 57.7546 51.2264 57.7546C51.8569 57.7546 52.428 57.4993 52.8407 57.0856C53.2544 56.6729 53.5097 56.1018 53.5097 55.4713C53.5097 54.8407 53.2544 54.2696 52.8407 53.857C52.4269 53.4432 51.8569 53.1879 51.2264 53.1879ZM52.6074 54.0902C52.2541 53.737 51.7656 53.518 51.2264 53.518C50.6872 53.518 50.1986 53.737 49.8453 54.0902C49.4921 54.4435 49.2731 54.9321 49.2731 55.4713C49.2731 56.0105 49.4921 56.4991 49.8453 56.8523C50.1986 57.2055 50.6872 57.4245 51.2264 57.4245C51.7656 57.4245 52.2541 57.2055 52.6074 56.8523C52.9606 56.4991 53.1796 56.0105 53.1796 55.4713C53.1796 54.9321 52.9606 54.4435 52.6074 54.0902ZM52.121 54.5766C51.8921 54.3477 51.5752 54.2058 51.2264 54.2058C50.8775 54.2058 50.5606 54.3477 50.3317 54.5766C50.1028 54.8055 49.9609 55.1224 49.9609 55.4713C49.9609 55.8201 50.1028 56.137 50.3317 56.3659C50.5606 56.5948 50.8775 56.7367 51.2264 56.7367C51.5752 56.7367 51.8921 56.5948 52.121 56.3659C52.3499 56.137 52.4918 55.8201 52.4918 55.4713C52.4918 55.1224 52.3499 54.8055 52.121 54.5766Z" fill="#D61627"/>
<path fill-rule="evenodd" clip-rule="evenodd" d="M27.7049 48.1535C38.0719 45.0823 45.2026 44.5079 53.8265 44.4913H55.3253C63.881 44.5145 70.9885 45.101 81.295 48.1535C81.9916 48.3593 82.6155 48.7477 82.6155 49.474V58.526C82.6155 59.2523 81.9916 59.6407 81.295 59.8465C70.9885 62.9002 63.881 63.4856 55.3253 63.5087H55.2911C55.1195 63.5087 54.9478 63.5087 54.775 63.5087H54.2248C45.4204 63.5098 38.2314 62.9651 27.7049 59.8465C27.0083 59.6407 26.3844 59.2523 26.3844 58.526V49.474C26.3844 48.7477 27.0083 48.3593 27.7049 48.1535ZM54.0136 46.4743C45.9585 46.504 38.742 46.811 29.3005 49.2539C28.5973 49.4355 27.98 49.8482 27.98 50.5744V57.4256C27.98 58.1519 28.5973 58.5645 29.3005 58.7461C38.6683 61.1692 45.8463 61.4905 53.8265 61.5246H55.1756C63.1547 61.4905 70.3327 61.1692 79.6994 58.7461C80.4026 58.5645 81.0199 58.1519 81.0199 57.4256V50.5744C81.0199 49.8482 80.4026 49.4355 79.6994 49.2539C70.2579 46.8121 63.0413 46.5051 54.9863 46.4743H54.0125H54.0136Z" fill="#D61627"/>
</g>
</g>
<defs>
<clipPath id="clip0_3_564">
<rect width="108" height="108" fill="white"/>
</clipPath>
<clipPath id="clip1_3_564">
<rect width="80" height="26.8501" fill="white" transform="translate(14.5 40.575)"/>
</clipPath>
</defs>
</svg>
