<svg width="108" height="108" viewBox="0 0 108 108" fill="none" xmlns="http://www.w3.org/2000/svg">
<g clip-path="url(#clip0_3_565)">
<rect x="-0.00012207" y="-1.52588e-05" width="108" height="108" fill="white"/>
<g clip-path="url(#clip1_3_565)">
<path fill-rule="evenodd" clip-rule="evenodd" d="M20.1542 45.295C20.3841 45.6528 21.3311 48.8646 21.4703 49.4911L18.872 49.4685L20.1542 45.295ZM28.6792 41.4372C27.4213 41.8079 27.4262 43.1257 27.4262 44.526C27.4262 46.8022 27.3339 51.0922 27.4294 53.1045C27.5411 55.4745 30.175 55.7173 30.8485 53.8589C31.1253 53.0948 31.0023 48.5862 31.0023 47.5987C31.0023 46.2194 31.067 44.675 30.9942 43.3151C30.9278 42.0767 30.0827 41.0228 28.6776 41.4356L28.6792 41.4372ZM33.2687 45.1315C31.271 45.1428 31.2273 47.4028 33.2687 47.5501V52.1736C33.2687 52.9215 33.1797 53.5869 33.5018 54.194C34.1429 55.4049 36.0046 55.2899 36.521 54.2458C37.0018 53.2744 36.5388 49.3875 36.7574 47.5517C37.8388 47.5517 38.9833 47.5145 38.9509 46.3165C38.9202 45.1137 37.8582 45.1347 36.7363 45.1347C36.7363 44.3852 36.6538 43.9513 37.4486 43.8785C38.1415 43.8137 38.679 44.0404 38.9914 43.4981C39.5596 42.5089 38.7599 41.6169 37.3644 41.4146C36.1309 41.2365 34.9216 41.489 34.1267 42.0637C33.2217 42.7178 33.2687 44.0873 33.2687 45.1347V45.1315ZM43.916 47.4433C45.352 47.1373 45.734 48.4567 45.8117 49.6692C45.8959 50.9708 45.7535 52.5201 44.46 52.635C42.9674 52.7677 42.4963 51.6685 42.4299 50.3168C42.3587 48.8857 42.7003 47.7023 43.916 47.4433ZM46.2424 54.5582C45.42 54.8286 45.2597 55.2867 43.5275 55.1588C42.5788 55.0876 41.7306 54.7881 41.0522 54.3623C39.83 53.595 38.8344 52.0797 38.904 49.9574C38.9736 47.8609 39.966 46.3991 41.1251 45.6285C41.7856 45.1898 42.6501 44.8968 43.5955 44.8207C45.3439 44.6782 45.6709 45.274 46.3379 45.4116C47.055 44.3415 48.7403 44.7349 49.2033 45.8519L49.1321 54.283C48.6496 55.1685 47.5974 55.3903 46.8235 55.0196C46.5062 54.8674 46.5014 54.746 46.2391 54.5615L46.2424 54.5582ZM18.0367 52.478L22.3251 52.4553C22.5032 53.2226 22.8124 54.33 23.2818 54.6942C24.0249 55.2689 25.1128 55.1248 25.7296 54.5258C26.5099 53.7666 26.3367 53.0575 25.9676 52.0069C25.6794 51.1845 25.4042 50.3993 25.1128 49.5769C24.5397 47.9597 23.9731 46.3489 23.4195 44.7689C22.6991 42.7161 22.7282 41.4405 20.159 41.4534C19.0857 41.4583 18.2633 41.6687 17.8505 42.3616C17.4458 43.0399 14.9738 50.4009 14.3991 51.9874C14.0494 52.9539 13.9005 53.7973 14.5691 54.4757C15.351 55.2705 17.1155 55.4842 17.653 53.7391C17.7841 53.3149 17.9088 52.9167 18.0367 52.478Z" fill="#005AAB"/>
<path fill-rule="evenodd" clip-rule="evenodd" d="M14.085 62.8193L14.0979 64.231H78.6117C82.1846 64.231 85.7607 64.2488 89.3319 64.231C90.7485 64.2245 92.2508 63.5851 92.9987 62.5571C94.0801 61.0726 94.085 60.4671 94.085 58.2784C93.2901 58.1537 25.7765 58.2444 18.8007 58.246C16.2543 58.246 14.085 60.268 14.085 62.8193Z" fill="#ED1C24"/>
<path fill-rule="evenodd" clip-rule="evenodd" d="M88.113 42.7485C88.3153 43.2439 88.4254 43.0723 88.4011 43.885C88.3882 44.3334 88.3137 44.7786 88.2295 45.2157C88.0822 45.996 87.8539 46.7892 87.6726 47.5809C86.9619 50.6843 85.4613 55.719 90.2029 55.1167C91.7927 54.9144 93.6382 54.0062 92.6134 52.2562C91.9303 52.6496 89.8257 54.1179 89.8257 51.8871C89.8257 50.5078 90.3341 49.1755 90.5251 47.8658C92.0274 47.8626 93.9846 48.1944 94.0818 45.9118C93.0149 46.1271 92.0808 46.221 90.9379 46.1676C91.0755 45.2966 91.8736 43.3993 91.3944 42.742C90.7776 41.897 88.9888 42.5316 88.1113 42.7469L88.113 42.7485ZM55.0361 47.848C55.1737 47.0369 55.7678 45.5443 55.0361 45.0198C54.3626 44.5374 52.794 44.8773 52.1254 45.2545C52.5333 45.588 52.4443 46.1433 52.3617 46.799C52.1869 48.1912 51.7482 50.1322 51.3952 51.4629C51.2075 52.1704 50.5842 53.8216 50.9371 54.4724C51.4131 55.3515 52.8571 55.1005 53.809 54.793C53.7199 54.0645 53.3395 54.0175 54.1085 52.4666C54.4501 51.7802 54.7706 51.1327 55.1122 50.4689C55.4619 49.789 55.8633 49.1803 56.2454 48.6008C56.4478 48.2932 56.689 47.9807 56.8881 47.7428C57.0176 47.5857 57.1212 47.5323 57.2523 47.3931C57.4401 47.194 57.4142 47.1341 57.7477 47.1001C57.8659 47.9564 56.9545 51.3528 56.7149 52.3614C56.5303 53.1401 56.0997 54.2555 56.7472 54.814C57.3025 55.2916 58.7368 55.0941 59.3148 54.746C58.9586 53.8152 59.2338 53.2421 59.6321 52.4213C59.9737 51.7203 60.2764 51.0938 60.6487 50.4349C61.0794 49.6708 62.5606 47.1357 63.2454 47.1049C63.3636 47.4352 62.3664 51.764 62.2271 52.5136C62.0345 53.5626 62.0895 54.5971 62.9556 54.9662C63.9982 55.4098 64.8449 54.7703 65.5523 54.4951C65.4455 54.249 65.5685 54.4951 65.426 54.283C65.3111 54.113 65.392 54.283 65.282 54.0661C64.7769 53.0689 65.2561 51.3043 65.4714 50.2585C65.6754 49.2726 66.3197 46.7601 66.1982 45.8568C65.9765 44.2023 64.1309 44.5455 62.899 45.397C62.3356 45.7855 61.9762 46.2081 61.5683 46.6403C61.0551 47.1826 60.6714 47.8091 60.3897 48.1086C60.4658 47.2539 60.8867 46.3198 60.5241 45.4682C60.1938 44.696 59.3261 44.5099 58.3499 44.8482C57.1568 45.2626 56.4931 46.1093 55.7484 46.9625C55.6124 47.1179 55.5525 47.2037 55.4036 47.4044L55.0361 47.8528V47.848ZM74.0368 47.5533C73.8361 47.8107 72.7935 49.8457 72.0699 50.8461C71.751 51.2865 69.7242 54.3834 69.9071 51.5973C69.9913 50.3151 70.7327 46.1109 72.5588 46.4315C73.1465 46.5351 73.8733 47.1729 74.0352 47.5517L74.0368 47.5533ZM73.1108 51.7446C72.8696 51.9437 72.4811 52.6382 72.235 52.9393C71.6069 53.7067 71.7299 53.4898 71.2831 53.9884C70.7408 54.5938 69.6643 55.3191 68.4242 55.1265C66.174 54.7768 66.6143 51.0793 67.346 49.2629C68.4436 46.5367 70.8849 43.9578 73.7778 44.8547C73.9543 44.9097 74.4092 45.1396 74.4885 45.1526C74.7556 45.1963 74.9628 44.9567 75.2494 44.879C75.9471 44.6863 77.2681 44.9065 77.7505 45.2384L76.9897 47.2587C76.5089 48.727 76.2207 50.4706 76.1608 52.0263C76.0993 53.6322 76.2725 53.5092 76.5493 54.4805C75.9083 55.0471 74.6633 55.3855 73.705 54.793C72.8437 54.262 73.0801 52.8843 73.1141 51.743L73.1108 51.7446ZM82.1377 47.9257C82.871 46.9317 84.218 44.9324 85.5778 44.709C87.8264 44.3399 86.2934 47.848 85.1148 48.5813C84.8963 48.2899 84.6745 47.9467 84.1516 48.1297C83.504 48.3563 82.4712 49.9768 82.1474 50.5628C81.7848 51.2201 81.4853 51.8175 81.1858 52.5298C80.4945 54.1826 80.8329 53.9447 80.9397 54.7849C80.0202 55.1022 78.4888 55.3871 77.948 54.5485C77.5644 53.9544 78.2119 52.1493 78.3965 51.4516C78.6652 50.4301 78.9161 49.3762 79.1347 48.3336C79.4131 47.011 79.6382 46.2825 79.2075 45.193C80.0251 44.9599 81.372 44.4597 82.1393 45.0668C82.952 45.7094 82.1523 47.0337 82.1361 47.9241L82.1377 47.9257Z" fill="#ED1C24"/>
<path fill-rule="evenodd" clip-rule="evenodd" d="M14.085 66.9637H87.4006C89.2299 66.9637 90.4991 67.1223 91.9011 66.2465C92.6603 65.7722 93.9684 64.3961 93.9733 63.1253C93.7207 63.2969 93.5912 63.5478 93.3467 63.7631C91.0803 65.7705 89.1053 65.3448 85.8999 65.3448H14.0898L14.085 66.9637Z" fill="#FFD503"/>
</g>
</g>
<defs>
<clipPath id="clip0_3_565">
<rect width="108" height="108" fill="white"/>
</clipPath>
<clipPath id="clip1_3_565">
<rect width="80" height="25.6301" fill="white" transform="translate(14.085 41.345)"/>
</clipPath>
</defs>
</svg>
