<svg width="108" height="108" viewBox="0 0 108 108" fill="none" xmlns="http://www.w3.org/2000/svg">
<g clip-path="url(#clip0_3_560)">
<rect width="108" height="108" fill="white"/>
<g clip-path="url(#clip1_3_560)">
<path fill-rule="evenodd" clip-rule="evenodd" d="M38.9554 36.0072L15.0556 39.1942C15.0556 39.1942 14 39.3168 14 40.5887V63.2858C14 63.2858 14.1442 65.9421 17.1798 65.9421H44.2666C44.2666 65.9421 46.6807 65.3653 46.6807 62.9484V44.2199C46.6807 44.2199 46.7282 41.5636 43.5427 41.5636H17.4221C17.1147 41.4986 16.8319 41.3479 16.6066 41.1289C16.3813 40.91 16.2225 40.6317 16.1487 40.3263C16.0694 39.9052 16.2396 39.8619 16.6852 39.8619H40.67V37.2748C40.67 37.2748 40.5849 35.8875 38.9554 36.0072Z" fill="#E8451E"/>
<path fill-rule="evenodd" clip-rule="evenodd" d="M30.8248 62.0903C28.8434 62.0903 27.384 61.2827 25.231 59.1528C25.0546 58.9687 24.9571 58.7231 24.9593 58.4682C24.9614 58.2133 25.063 57.9693 25.2424 57.7882C25.4218 57.6072 25.6648 57.5033 25.9196 57.4988C26.1745 57.4943 26.421 57.5894 26.6067 57.764C28.8737 60.0051 29.9235 60.5617 31.7348 60.0714C32.7875 59.783 33.7321 58.4447 33.7869 56.906C33.8302 55.7105 32.9865 54.9303 31.2805 54.5886C28.2175 53.9757 26.4092 52.8047 25.9073 51.1059C25.5035 49.7388 26.0342 48.2116 27.3624 46.9238L27.4172 46.8748C30.2725 44.4882 33.5879 46.2662 34.942 47.5411C35.1227 47.7205 35.2263 47.9633 35.2308 48.2178C35.2352 48.4724 35.1402 48.7187 34.9658 48.9043C34.7915 49.0899 34.5517 49.2002 34.2973 49.2117C34.0429 49.2232 33.7941 49.135 33.6038 48.9658C33.4898 48.8591 30.9244 46.5287 28.7006 48.3515C27.9407 49.1028 27.5974 49.9263 27.7849 50.5579C28.056 51.478 29.4347 52.2307 31.6656 52.6778C35.4568 53.4363 35.7799 55.9412 35.7424 56.9824C35.6616 59.2508 33.7638 61.7918 31.9828 62.0168C31.5988 62.0657 31.212 62.0903 30.8248 62.0903V62.0903Z" fill="white"/>
<path fill-rule="evenodd" clip-rule="evenodd" d="M56.7334 41.4266C56.301 41.1625 55.8328 40.9619 55.3432 40.831C54.3338 40.5426 53.6055 40.1734 53.258 39.7018C52.9479 39.2923 52.9479 38.7587 53.32 38.0752C53.5305 37.6656 54.041 37.406 54.6972 37.3541C55.5276 37.3212 56.3514 37.5141 57.081 37.9122C57.1861 37.9648 57.3079 37.9735 57.4195 37.9363C57.531 37.8991 57.6232 37.8191 57.6758 37.7139C57.7284 37.6087 57.7371 37.487 57.6999 37.3754C57.6627 37.2639 57.5827 37.1717 57.4775 37.1191C56.4609 36.597 55.4586 36.398 54.6236 36.4615C53.6546 36.535 52.8931 36.9575 52.5268 37.6397C51.9673 38.6708 52.0048 39.5144 52.5268 40.221C53.0099 40.8541 53.8911 41.3386 55.0952 41.6732C55.5074 41.7879 55.9033 41.9546 56.2734 42.1693C56.745 42.4577 57.055 42.7908 57.205 43.1499C57.3486 43.4889 57.369 43.8674 57.2627 44.2199C57.2045 44.4026 57.1251 44.5778 57.0262 44.742C57.0262 44.7665 57.0016 44.791 56.9771 44.8285C56.6166 45.3621 56.034 45.6346 55.3259 45.6346C54.5443 45.6346 53.5882 45.3246 52.5716 44.7045C52.4273 44.6179 52.2831 44.53 52.162 44.4434C52.0633 44.3777 51.9426 44.3538 51.8263 44.377C51.71 44.4003 51.6077 44.4688 51.5419 44.5675C51.4761 44.6661 51.4522 44.7869 51.4755 44.9032C51.4987 45.0195 51.5672 45.1218 51.6659 45.1876C51.8116 45.2794 51.9521 45.379 52.087 45.4861C53.2537 46.1941 54.3583 46.5402 55.3014 46.5402C56.3195 46.5402 57.1632 46.1437 57.6967 45.3491C57.7184 45.3058 57.7434 45.2643 57.7717 45.2251C57.9158 44.993 58.0283 44.7427 58.1063 44.4809C58.2728 43.9326 58.2375 43.3428 58.0068 42.8182C57.7386 42.2324 57.2932 41.7456 56.7334 41.4266Z" fill="#E8451E"/>
<path fill-rule="evenodd" clip-rule="evenodd" d="M63.5718 40.446C63.0636 40.3212 62.5309 40.3381 62.0317 40.495C61.4631 40.6706 60.9385 40.9656 60.493 41.3602V36.884C60.4865 36.77 60.4367 36.6628 60.3537 36.5844C60.2707 36.506 60.1608 36.4623 60.0467 36.4623C59.9325 36.4623 59.8227 36.506 59.7397 36.5844C59.6567 36.6628 59.6068 36.77 59.6003 36.884V46.1047C59.6068 46.2187 59.6567 46.3259 59.7397 46.4043C59.8227 46.4827 59.9325 46.5264 60.0467 46.5264C60.1608 46.5264 60.2707 46.4827 60.3537 46.4043C60.4367 46.3259 60.4865 46.2187 60.493 46.1047V42.6538C60.5018 42.6469 60.5101 42.6391 60.5175 42.6307C61.077 41.9472 61.6971 41.5261 62.2927 41.3401C62.6342 41.2294 62.9998 41.2164 63.3483 41.3026C63.6319 41.3794 63.881 41.5503 64.0549 41.7871C64.2486 42.0871 64.3439 42.4399 64.3275 42.7966V46.0946C64.3275 46.2132 64.3746 46.3269 64.4584 46.4107C64.5423 46.4946 64.656 46.5417 64.7745 46.5417C64.8931 46.5417 65.0068 46.4946 65.0907 46.4107C65.1745 46.3269 65.2216 46.2132 65.2216 46.0946V42.7922C65.2369 42.2529 65.0804 41.7226 64.7745 41.2781C64.4824 40.8695 64.0572 40.5753 63.5718 40.446V40.446Z" fill="#E8451E"/>
<path fill-rule="evenodd" clip-rule="evenodd" d="M71.166 45.0131C70.7502 45.426 70.188 45.6577 69.602 45.6577C69.016 45.6577 68.4538 45.426 68.0381 45.0131C67.6252 44.5973 67.3934 44.0351 67.3934 43.4491C67.3934 42.8631 67.6252 42.3009 68.0381 41.8852C68.4554 41.4742 69.017 41.2428 69.6027 41.2406C70.0397 41.2408 70.4668 41.3706 70.83 41.6134C71.1932 41.8563 71.4764 42.2013 71.6436 42.605C71.8109 43.0087 71.8548 43.4528 71.7698 43.8814C71.6848 44.31 71.4747 44.7038 71.166 45.0131ZM69.6027 40.3594C68.7949 40.3769 68.026 40.7101 67.4608 41.2876C66.8956 41.8651 66.5791 42.6411 66.5791 43.4491C66.5791 44.2572 66.8956 45.0331 67.4608 45.6106C68.026 46.1882 68.7949 46.5213 69.6027 46.5388C70.4106 46.5213 71.1795 46.1882 71.7447 45.6106C72.3099 45.0331 72.6264 44.2572 72.6264 43.4491C72.6264 42.6411 72.3099 41.8651 71.7447 41.2876C71.1795 40.7101 70.4106 40.3769 69.6027 40.3594V40.3594Z" fill="#E8451E"/>
<path fill-rule="evenodd" clip-rule="evenodd" d="M78.6864 45.0131C78.2704 45.4258 77.7091 45.6588 77.1231 45.662C76.6862 45.6617 76.2591 45.532 75.8959 45.2891C75.5327 45.0463 75.2495 44.7012 75.0822 44.2976C74.915 43.8939 74.8711 43.4497 74.9561 43.0211C75.0411 42.5925 75.2512 42.1988 75.5599 41.8895C75.9766 41.4784 76.5378 41.2469 77.1231 41.2449C77.5592 41.246 77.9852 41.3761 78.3475 41.6187C78.7098 41.8613 78.9923 42.2057 79.1594 42.6085C79.3265 43.0113 79.3707 43.4545 79.2866 43.8823C79.2024 44.3102 78.9936 44.7036 78.6864 45.0131V45.0131ZM77.1347 40.3594C76.729 40.359 76.3273 40.4387 75.9526 40.5942C75.5779 40.7496 75.2376 40.9776 74.9514 41.2651C74.915 41.2949 74.8817 41.3282 74.8519 41.3646V40.8065C74.8519 40.6879 74.8048 40.5742 74.7209 40.4904C74.6371 40.4065 74.5234 40.3594 74.4048 40.3594C74.2862 40.3594 74.1725 40.4065 74.0887 40.4904C74.0049 40.5742 73.9578 40.6879 73.9578 40.8065V49.5917C73.9578 49.7103 74.0049 49.824 74.0887 49.9078C74.1725 49.9917 74.2862 50.0388 74.4048 50.0388C74.5234 50.0388 74.6371 49.9917 74.7209 49.9078C74.8048 49.824 74.8519 49.7103 74.8519 49.5917V45.5337C74.8879 45.5639 74.9211 45.5972 74.9514 45.6332C75.3106 45.9923 75.7529 46.2572 76.2391 46.4046C76.7252 46.5519 77.2401 46.5771 77.7383 46.4779C78.2365 46.3787 78.7025 46.1581 79.0951 45.8358C79.4877 45.5135 79.7948 45.0993 79.9891 44.63C80.1834 44.1606 80.2589 43.6506 80.2091 43.1451C80.1592 42.6396 79.9854 42.1542 79.7032 41.7319C79.4209 41.3096 79.0388 40.9634 78.5908 40.724C78.1428 40.4846 77.6426 40.3594 77.1347 40.3594V40.3594Z" fill="#E8451E"/>
<path fill-rule="evenodd" clip-rule="evenodd" d="M82.4993 42.7663C82.6098 42.4053 82.808 42.0773 83.0761 41.8116C83.2513 41.6343 83.4599 41.4936 83.6899 41.3975C83.9199 41.3015 84.1666 41.252 84.4158 41.252C84.6651 41.252 84.9118 41.3015 85.1418 41.3975C85.3718 41.4936 85.5804 41.6343 85.7555 41.8116C86.022 42.0823 86.2258 42.4082 86.3526 42.7663H82.4993ZM86.3843 41.18C86.1292 40.9187 85.8241 40.7114 85.4871 40.5707C85.1501 40.43 84.7882 40.3586 84.423 40.3609C84.0573 40.3548 83.6943 40.4244 83.3568 40.5654C83.0193 40.7063 82.7145 40.9156 82.4618 41.18C81.3947 42.3337 81.4076 43.5753 81.8287 44.8285C82.0171 45.3627 82.3858 45.8145 82.8714 46.1062C83.3653 46.4142 83.9411 46.565 84.5226 46.5388C85.2325 46.5126 85.9312 46.3526 86.5819 46.0672C86.6389 46.0467 86.6912 46.0148 86.7355 45.9734C86.7798 45.932 86.8152 45.882 86.8395 45.8264C86.8638 45.7709 86.8765 45.711 86.8769 45.6503C86.8772 45.5897 86.8652 45.5296 86.8415 45.4738C86.8178 45.418 86.783 45.3676 86.7391 45.3257C86.6953 45.2838 86.6433 45.2513 86.5865 45.2302C86.5297 45.209 86.4691 45.1997 86.4086 45.2028C86.348 45.2059 86.2887 45.2213 86.2343 45.2481C85.6903 45.4979 85.1021 45.6371 84.5038 45.6577C84.0945 45.6723 83.6896 45.5692 83.3372 45.3606C83.0246 45.1477 82.7826 44.8465 82.6421 44.4954C82.5469 44.2302 82.4807 43.9556 82.4445 43.6762H86.5516C86.7751 43.6762 87.5077 43.7253 87.1284 42.4721C86.9921 41.985 86.7352 41.5401 86.3814 41.1785L86.3843 41.18Z" fill="#E8451E"/>
<path fill-rule="evenodd" clip-rule="evenodd" d="M89.2772 42.7663C89.387 42.405 89.5853 42.0769 89.854 41.8116C90.0293 41.6343 90.238 41.4935 90.4681 41.3974C90.6982 41.3013 90.9451 41.2519 91.1944 41.2519C91.4438 41.2519 91.6906 41.3013 91.9207 41.3974C92.1508 41.4935 92.3596 41.6343 92.5349 41.8116C92.8008 42.0825 93.0041 42.4084 93.1304 42.7663H89.2772ZM94.0044 43.2321V42.9062C93.9841 42.7594 93.9513 42.6147 93.9063 42.4735C93.7716 41.9848 93.515 41.5383 93.1607 41.1757C92.906 40.9142 92.6011 40.7069 92.2644 40.5662C91.9276 40.4254 91.5659 40.3541 91.2009 40.3566C90.8352 40.3504 90.4721 40.42 90.1346 40.5609C89.7971 40.7019 89.4924 40.9112 89.2397 41.1757C88.1725 42.3293 88.184 43.571 88.6066 44.8242C88.7946 45.3586 89.1634 45.8105 89.6492 46.1019C90.1431 46.4099 90.7189 46.5607 91.3004 46.5345C92.0104 46.5083 92.7091 46.3483 93.3597 46.0629C93.4168 46.0424 93.4691 46.0105 93.5134 45.9691C93.5577 45.9277 93.5931 45.8777 93.6174 45.8221C93.6417 45.7666 93.6544 45.7066 93.6547 45.646C93.6551 45.5854 93.643 45.5253 93.6193 45.4695C93.5957 45.4137 93.5608 45.3633 93.517 45.3214C93.4732 45.2795 93.4212 45.247 93.3644 45.2258C93.3075 45.2047 93.247 45.1954 93.1864 45.1985C93.1259 45.2016 93.0666 45.217 93.0122 45.2438C92.4682 45.4936 91.8799 45.6328 91.2817 45.6534C90.8724 45.6679 90.4675 45.5648 90.115 45.3563C89.8021 45.1438 89.56 44.8424 89.4199 44.491C89.325 44.2258 89.2583 43.9512 89.2209 43.6719H93.3294C93.4924 43.6734 93.925 43.6993 94 43.2321H94.0044Z" fill="#E8451E"/>
<path fill-rule="evenodd" clip-rule="evenodd" d="M59.0308 58.064H54.393V51.3251H58.5751C58.6469 51.3246 58.7186 51.3285 58.79 51.3366C59.4274 51.4073 62.2106 51.889 62.2106 54.8741C62.2106 58.0611 59.0279 58.0611 59.0279 58.0611L59.0308 58.064ZM58.2117 48.7567H51.7828V65.9421H54.393V60.8126H58.4914C59.8669 60.826 61.2207 60.4694 62.411 59.7801C63.8171 58.948 65.2217 57.4814 65.2217 54.9462C65.2217 52.5682 63.9873 51.0598 62.675 50.1267C61.3653 49.2179 59.8057 48.7382 58.2117 48.7539V48.7567Z" fill="#E8451E"/>
<path fill-rule="evenodd" clip-rule="evenodd" d="M71.6837 63.5757C70.919 63.5757 70.1715 63.349 69.5355 62.9242C68.8996 62.4995 68.4039 61.8958 68.111 61.1894C67.8181 60.483 67.7412 59.7056 67.8899 58.9555C68.0387 58.2054 68.4065 57.5163 68.9468 56.9751C69.4871 56.434 70.1758 56.0652 70.9256 55.9153C71.6755 55.7654 72.453 55.8412 73.1598 56.133C73.8666 56.4249 74.4711 56.9197 74.8968 57.555C75.3224 58.1903 75.5503 58.9375 75.5514 59.7022V59.7123C75.5506 60.7374 75.1428 61.7203 74.4175 62.4448C73.6922 63.1693 72.7089 63.576 71.6837 63.5757V63.5757ZM75.5514 53.7262V54.9361C74.6494 54.204 73.5585 53.7425 72.4049 53.605C71.2514 53.4675 70.0825 53.6597 69.0337 54.1592C67.9849 54.6587 67.0991 55.4452 66.479 56.4275C65.8588 57.4098 65.5297 58.5477 65.5297 59.7094C65.5297 60.8711 65.8588 62.009 66.479 62.9913C67.0991 63.9736 67.9849 64.7601 69.0337 65.2596C70.0825 65.7592 71.2514 65.9513 72.4049 65.8138C73.5585 65.6763 74.6494 65.2148 75.5514 64.4827V65.8513H78.1587V53.7262H75.5514Z" fill="#E8451E"/>
<path fill-rule="evenodd" clip-rule="evenodd" d="M79.3325 53.5603H82.8195L86.9107 61.3909L90.8577 53.5603H94V53.582L84.6293 71.0241H81.5591L85.1369 64.5419L79.3325 53.5603Z" fill="#E8451E"/>
</g>
</g>
<defs>
<clipPath id="clip0_3_560">
<rect width="108" height="108" fill="white"/>
</clipPath>
<clipPath id="clip1_3_560">
<rect width="80" height="35.0241" fill="white" transform="translate(14 36)"/>
</clipPath>
</defs>
</svg>
