<svg width="108" height="108" viewBox="0 0 108 108" fill="none" xmlns="http://www.w3.org/2000/svg">
<g clip-path="url(#clip0_3_549)">
<rect x="-0.00012207" width="108" height="108" fill="white"/>
<path d="M25.7878 60.0306C25.7878 59.0313 25.7986 56.3603 25.774 56.0312C25.7955 52.0567 22.9057 49.253 21.08 49.4716C19.8167 49.5812 18.758 50.0963 18.1895 51.5782C17.6627 52.9592 18.1337 54.7962 19.8855 55.2273C21.7586 55.6902 22.8523 56.0753 23.6439 56.6187C24.6138 57.2839 25.4056 58.5549 25.4266 60.0322" fill="#0060AF"/>
<path d="M26.5354 66.0722C23.2327 66.0722 19.8384 65.2587 16.4486 63.6498L16.3654 63.6089L16.3256 63.5241C14.8044 60.3131 14 56.8011 14 53.365C14 49.934 14.7714 46.5723 16.2938 43.3656L16.3356 43.2804L16.4203 43.2379C19.5561 41.7524 22.9293 40.9999 26.4496 40.9999C29.7288 40.9999 33.2309 41.8376 36.5757 43.4266L36.6616 43.4648L36.7012 43.5516C38.2515 46.8218 39.0691 50.333 39.0691 53.7121C39.0691 57.0782 38.2841 60.4429 36.7319 63.7111L36.691 63.797L36.6047 63.8367C33.5169 65.2985 30.0346 66.0722 26.5354 66.0722V66.0722ZM16.7623 63.2095C20.0554 64.7585 23.3396 65.5408 26.5354 65.5408C29.9241 65.5408 33.2942 64.8001 36.2941 63.396C37.7843 60.2291 38.5397 56.9697 38.5397 53.7121C38.5397 50.4415 37.7513 47.0393 36.26 43.8653C33.0139 42.3394 29.6239 41.5302 26.4496 41.5302C23.0415 41.5302 19.7749 42.2531 16.7338 43.6791C15.2741 46.7872 14.5312 50.0441 14.5312 53.365C14.5312 56.6921 15.3033 60.0957 16.7623 63.2095Z" fill="#0060AF"/>
<path d="M25.005 60.0322C25.0111 58.7513 24.2962 57.6187 23.3618 57.01C22.5329 56.472 21.4201 56.1185 19.625 55.6633C19.0701 55.5213 18.4897 55.206 18.31 54.8041C17.8346 55.2831 17.7483 56.3599 17.8319 56.9892C17.9291 57.7174 18.7801 58.9177 20.0615 58.9647C20.844 58.9961 21.8333 58.7963 22.3078 58.6955C23.1262 58.5187 24.4212 59.0314 24.6273 60.0306" fill="#0060AF"/>
<path d="M26.4496 43.2772C24.277 43.2772 22.4002 44.71 22.407 47.1894C22.4138 49.2743 24.0905 50.3904 24.6888 51.1876C25.5929 52.389 26.0823 53.8109 26.1331 55.9867C26.1727 57.7183 26.1706 59.4283 26.1795 60.0342H26.6591C26.6507 59.4002 26.629 57.585 26.6539 55.9331C26.6864 53.7567 27.1934 52.389 28.098 51.1876C28.7015 50.3904 30.3768 49.2743 30.3805 47.1894C30.3886 44.71 28.513 43.2772 26.3422 43.2772" fill="#0060AF"/>
<path d="M27.0012 60.0306C27.0012 59.0313 26.9899 56.3603 27.0141 56.0312C26.9928 52.0567 29.8808 49.253 31.708 49.4716C32.9713 49.5812 34.0289 50.0963 34.599 51.5782C35.1254 52.9592 34.6516 54.7962 32.9019 55.2273C31.0279 55.6902 29.9355 56.0753 29.1419 56.6187C28.1731 57.2839 27.4367 58.5549 27.4141 60.0322" fill="#0060AF"/>
<path d="M27.7833 60.0322C27.7765 58.7513 28.4912 57.6187 29.4229 57.01C30.2551 56.472 31.3692 56.1185 33.1628 55.6633C33.7188 55.5213 34.2986 55.206 34.4751 54.8041C34.9527 55.2831 35.0388 56.3599 34.9552 56.9892C34.856 57.7174 34.0072 58.9177 32.7281 58.9647C31.9458 58.9961 30.9513 58.7963 30.4789 58.6955C29.6636 58.5187 28.3651 59.0314 28.158 60.0306" fill="#0060AF"/>
<path d="M28.4536 64.1675L28.1755 62.1388L28.8466 62.0371C29.01 62.0147 29.2089 62.0432 29.2885 62.1456C29.3764 62.2525 29.4033 62.3409 29.4203 62.481C29.4456 62.6544 29.3954 62.8549 29.2001 62.9548V62.9609C29.4183 62.9609 29.55 63.1175 29.5882 63.382C29.5939 63.4378 29.6104 63.5728 29.5939 63.6853C29.5496 63.9532 29.3898 64.0393 29.1201 64.077L28.4536 64.1675ZM28.8855 63.8042C28.9651 63.7929 29.0458 63.7886 29.1088 63.7484C29.2053 63.6853 29.1965 63.5504 29.1832 63.4503C29.1495 63.2301 29.0921 63.1465 28.8586 63.1811L28.7119 63.2037L28.8048 63.8155L28.8855 63.8042ZM28.7449 62.8669C28.8337 62.8525 28.9542 62.8418 29.0044 62.7575C29.0306 62.7012 29.0643 62.6564 29.0421 62.5312C29.0148 62.3827 28.9655 62.2907 28.777 62.3264L28.6014 62.3547L28.6705 62.8746" fill="#0060AF"/>
<path d="M31.3605 62.9473C31.3657 62.9851 31.3718 63.0271 31.3741 63.0649C31.4283 63.4349 31.3605 63.7412 30.9446 63.8255C30.3298 63.9439 30.2121 63.5619 30.1038 63.0271L30.0462 62.7378C29.9614 62.2261 29.925 61.8387 30.5245 61.7193C30.8624 61.6576 31.0857 61.7921 31.1786 62.1284C31.193 62.1786 31.2111 62.2283 31.2179 62.2787L30.8502 62.3547C30.8077 62.2283 30.7514 62.0025 30.5859 62.0215C30.2889 62.0572 30.387 62.4268 30.4175 62.5812L30.5281 63.1365C30.5613 63.3045 30.6273 63.5728 30.8843 63.521C31.0929 63.4792 31.0021 63.1541 30.9835 63.021" fill="#0060AF"/>
<path d="M31.9507 63.5612L31.8235 61.4619L32.3176 61.3111L33.3535 63.137L32.9645 63.2534L32.719 62.7893L32.2871 62.9191L32.3429 63.4466L31.9507 63.5612ZM32.2509 62.58L32.5631 62.4896L32.1485 61.6402" fill="#0060AF"/>
<path d="M19.7467 61.9741C19.9013 61.4791 20.0399 61.1147 20.6298 61.2765C20.9456 61.3647 21.1414 61.5039 21.1321 61.8707C21.1306 61.9524 21.1036 62.0355 21.086 62.1162L20.7187 62.0147C20.7668 61.8122 20.7973 61.6515 20.5478 61.5747C20.2594 61.4955 20.1891 61.8452 20.1493 61.9962L19.9999 62.5466C19.9524 62.71 19.8955 62.9801 20.1493 63.0497C20.3591 63.1062 20.4863 62.9003 20.5623 62.5997L20.3053 62.5317L20.3941 62.2132L20.9983 62.4076L20.7114 63.4683L20.4334 63.3928L20.496 63.1686H20.4881C20.3602 63.3519 20.204 63.3712 20.0672 63.3449C19.4631 63.1815 19.5261 62.7866 19.6703 62.2591" fill="#0060AF"/>
<path d="M21.9956 62.8701L21.8136 63.733L21.4041 63.6444L21.8405 61.6294L22.5387 61.7871C22.9474 61.8753 23.0708 62.0572 23.0129 62.4318C22.9799 62.6467 22.8739 62.8784 22.6151 62.8597L22.6124 62.8561C22.8312 62.9328 22.8497 63.0431 22.8115 63.2338C22.7951 63.315 22.6814 63.8075 22.7598 63.8871L22.7625 63.9474L22.3387 63.8369C22.3211 63.7004 22.381 63.4549 22.4047 63.319C22.4286 63.1988 22.4668 63.0293 22.3448 62.9655C22.2492 62.9147 22.2137 62.9172 22.1057 62.8923L21.9956 62.8701ZM22.0654 62.5579L22.3412 62.6323C22.5087 62.6565 22.6018 62.5697 22.6348 62.3674C22.6646 62.1818 22.626 62.1092 22.4757 62.0733L22.18 62.0134" fill="#0060AF"/>
<path d="M24.6225 62.0796L25.0276 62.1266L24.8531 63.5432C24.7683 63.9923 24.5947 64.1887 24.1006 64.1272C23.5979 64.0637 23.4786 63.8348 23.5091 63.382L23.6847 61.9666L24.0929 62.0134L23.9177 63.3972C23.8992 63.5475 23.8644 63.7701 24.1318 63.797C24.3689 63.8151 24.4227 63.658 24.4494 63.4627" fill="#0060AF"/>
<path d="M25.4741 64.2048L25.596 62.1791L26.3742 62.2128C26.7419 62.2308 26.8382 62.5312 26.8267 62.8178C26.8161 62.9921 26.7616 63.1867 26.6097 63.2923C26.4852 63.382 26.3251 63.4033 26.1766 63.396L25.923 63.382L25.8724 64.2309L25.4741 64.2048ZM25.9345 63.073L26.1407 63.0846C26.3082 63.0906 26.4192 63.0244 26.4336 62.7785C26.4418 62.5423 26.3525 62.5023 26.1355 62.4928L25.9721 62.4872" fill="#0060AF"/>
<path d="M80.3618 45.2351L77.2688 50.849C76.1013 49.9011 74.6758 49.2033 72.8569 49.2033C68.5526 49.2033 66.8042 52.4118 66.8042 54.6719C66.8042 56.3495 67.9027 58.8247 71.7326 58.8247C73.3401 58.8247 75.6255 57.7064 76.2833 57.1976L73.2242 63.7106C71.7661 64.0015 71.2871 64.1819 70.0527 64.2201C63.1979 64.4247 60.4279 60.2137 60.4299 55.9108C60.4345 50.2225 65.4919 43.3046 73.8758 43.3046C74.3896 43.3046 75.018 43.4822 75.5552 43.6791L76.0982 42.9847" fill="#0060AF"/>
<path d="M93.1241 43.1608L94 63.5651H87.4817L87.4779 60.0657H83.0332L81.5703 63.5651H74.5012L81.8917 48.9947L80.2252 48.9838L83.3917 43.1608H93.1241ZM87.4356 49.4029L84.9226 55.3378H87.5113" fill="#0060AF"/>
<path d="M56.3149 43.1608C59.5428 43.1789 61.3669 44.9311 61.3669 47.4622C61.3669 49.7955 59.4431 51.861 57.3313 52.929C59.5055 53.7282 59.6936 55.6902 59.6936 57.0782C59.6936 60.4316 56.3287 63.5651 51.9547 63.5651H42.4158L46.1367 49.1977L44.6083 49.1889L47.7327 43.1608C47.7327 43.1608 53.69 43.1428 56.3149 43.1608V43.1608ZM53.1479 51.4336C53.8156 51.4336 54.9946 51.2645 55.2894 49.9723C55.6124 48.5695 54.5059 48.5318 53.9752 48.5318L52.0788 48.5235L51.4175 51.4336L53.1479 51.4336ZM50.4668 55.0392L49.5936 58.3926H51.8266C52.7051 58.3926 53.9024 57.9566 54.1958 56.8653C54.4856 55.7709 53.6486 55.0392 52.7732 55.0392" fill="#0060AF"/>
</g>
<defs>
<clipPath id="clip0_3_549">
<rect width="108" height="108" fill="white"/>
</clipPath>
</defs>
</svg>
