<svg width="108" height="108" viewBox="0 0 108 108" fill="none" xmlns="http://www.w3.org/2000/svg">
<g clip-path="url(#clip0_3_554)">
<rect y="1" width="108" height="108" fill="white"/>
<path fill-rule="evenodd" clip-rule="evenodd" d="M72.8989 42.8963C71.3589 43.8174 67.7265 45.9693 66.3705 46.7706C65.5441 47.2055 63.6301 47.3954 62.5475 45.8876C62.5281 45.8604 61.1077 44.0271 61.0497 43.9581C61.009 43.9093 60.0907 42.5024 58.0445 42.4584C57.7422 42.451 56.239 42.4427 54.7724 43.3037C52.8229 44.4541 48.2891 47.1315 48.2891 47.1315C48.2891 47.1315 48.2878 47.1339 48.2855 47.1339C46.4218 48.2353 44.9697 49.0928 44.9697 49.0928L46.6854 51.2693C47.4879 52.2986 49.2978 53.095 50.8674 52.1643C50.8674 52.1643 56.6668 48.6954 56.6881 48.6854C59.1962 47.2645 61.1315 47.2645 62.416 47.7932C63.569 48.2965 64.572 49.5503 64.572 49.5503C64.572 49.5503 65.8829 51.2284 66.1142 51.5219C66.86 52.4702 68.0946 52.0977 68.0946 52.0977C68.0946 52.0977 68.5521 52.0441 69.2417 51.6212C69.2417 51.6212 74.8591 48.2568 74.8627 48.2558C76.6464 47.1748 78.2824 46.9729 79.1185 47.0524C81.7373 47.2983 82.5508 49.188 83.6863 50.5063C84.355 51.2817 84.9584 51.722 85.8811 51.6998C86.4874 51.6865 87.1724 51.3068 87.2734 51.2382L94.0002 47.2284C94.0002 47.2284 93.3099 46.1546 91.8964 44.484C90.6313 42.9934 89.2875 43.6678 88.2162 44.2159C87.7661 44.4459 86.1352 45.5664 84.5195 46.3482C83.3682 46.905 81.7145 46.7375 80.8082 45.5808C80.754 45.5105 79.2878 43.677 79.1337 43.4514C78.5419 42.6857 77.3873 42 75.9075 42C75.0078 42 73.9868 42.2535 72.8989 42.8963Z" fill="url(#paint0_linear_3_554)"/>
<path fill-rule="evenodd" clip-rule="evenodd" d="M14.0843 58.5732C14.0843 57.376 14.0632 56.3713 14 55.4754H16.1942L16.2971 57.0145H16.3586C16.856 56.2012 17.7654 55.2394 19.4619 55.2394C20.786 55.2394 21.8203 56.0104 22.254 57.1639H22.2965C22.6488 56.5871 23.0612 56.16 23.5366 55.8597C24.0957 55.4543 24.7372 55.2394 25.5647 55.2394C27.2398 55.2394 28.935 56.4144 28.935 59.7483V65.8801H26.453V60.1335C26.453 58.4029 25.8748 57.376 24.655 57.376C23.7847 57.376 23.1428 58.0182 22.8757 58.7664C22.8128 59.022 22.7509 59.3428 22.7509 59.6398V65.8801H20.2681V59.8547C20.2681 58.4029 19.7104 57.376 18.5311 57.376C17.5795 57.376 16.939 58.1464 16.7109 58.8713C16.6068 59.1294 16.565 59.4277 16.565 59.7263V65.8801H14.0843V58.5732Z" fill="#003A70"/>
<path fill-rule="evenodd" clip-rule="evenodd" d="M38.6052 63.3809C38.6052 64.3205 38.6465 65.2377 38.75 65.8806H36.4532L36.2883 64.7271H36.2255C35.6053 65.5398 34.5503 66.1157 33.2473 66.1157C31.2196 66.1157 30.0825 64.5999 30.0825 63.0179C30.0825 60.3889 32.3363 59.0654 36.06 59.0865V58.9149C36.06 58.2309 35.7908 57.0993 34.0121 57.0993C33.0187 57.0993 31.984 57.42 31.3018 57.8679L30.8047 56.1601C31.5508 55.6891 32.8551 55.2398 34.4466 55.2398C37.6749 55.2398 38.6052 57.3564 38.6052 59.6202V63.3809ZM36.122 60.7959C34.3226 60.7528 32.6062 61.1587 32.6062 62.7401C32.6062 63.7646 33.2473 64.2356 34.0543 64.2356C35.0666 64.2356 35.8125 63.5516 36.0393 62.8041C36.1009 62.6118 36.122 62.3973 36.122 62.227V60.7959Z" fill="#003A70"/>
<path fill-rule="evenodd" clip-rule="evenodd" d="M40.3642 58.5732C40.3642 57.376 40.3415 56.3713 40.2812 55.4754H42.5133L42.6381 57.035H42.6993C43.1342 56.2241 44.2304 55.2394 45.9056 55.2394C47.6645 55.2394 49.4847 56.4144 49.4847 59.7056V65.8801H46.9407V60.0054C46.9407 58.5088 46.4029 57.376 45.0168 57.376C44.0032 57.376 43.3001 58.124 43.0305 58.9149C42.9491 59.1505 42.9276 59.4717 42.9276 59.7687V65.8801H40.3642V58.5732Z" fill="#003A70"/>
<path fill-rule="evenodd" clip-rule="evenodd" d="M60.5156 51.2947V62.9524C60.5156 64.0205 60.5563 65.1763 60.5978 65.8806H58.3223L58.2204 64.2356H58.1783C57.5781 65.39 56.3557 66.1158 54.8887 66.1158C52.4902 66.1158 50.5865 64.0009 50.5865 60.7959C50.5654 57.3129 52.6753 55.2398 55.0953 55.2398C56.4808 55.2398 57.4746 55.8389 57.9289 56.6087H57.9708V51.2947H60.5156ZM57.9708 59.8115C57.9708 59.6 57.9495 59.3424 57.9097 59.1294C57.6818 58.1038 56.8746 57.27 55.7161 57.27C54.0821 57.27 53.1718 58.7664 53.1718 60.7108C53.1718 62.6118 54.0821 64.0009 55.6955 64.0009C56.7293 64.0009 57.6401 63.2747 57.888 62.1426C57.9495 61.9065 57.9708 61.6504 57.9708 61.3717V59.8115Z" fill="#003A70"/>
<path fill-rule="evenodd" clip-rule="evenodd" d="M62.3134 65.88H64.8809V55.476H62.3134V65.88Z" fill="#003A70"/>
<path fill-rule="evenodd" clip-rule="evenodd" d="M66.679 58.8295C66.679 57.4199 66.6575 56.4143 66.5957 55.4751H68.8095L68.8904 57.4615H68.9762C69.4719 55.9873 70.6512 55.4751 71.7264 55.4751C71.9741 55.4751 72.1187 55.4314 72.3262 55.4751V57.7834C72.1187 57.7407 71.8917 57.698 71.5813 57.698C70.3611 57.698 69.533 58.5092 69.3058 59.6835C69.2655 59.9187 69.2238 60.1977 69.2238 60.4982V65.8805H66.679V58.8295Z" fill="#003A70"/>
<path fill-rule="evenodd" clip-rule="evenodd" d="M73.5053 65.88H76.069V55.476H73.5053V65.88Z" fill="#003A70"/>
</g>
<defs>
<linearGradient id="paint0_linear_3_554" x1="14" y1="66.1158" x2="94.0002" y2="66.1158" gradientUnits="userSpaceOnUse">
<stop stop-color="#FFCA06"/>
<stop offset="0.330844" stop-color="#FBAA18"/>
<stop offset="0.694742" stop-color="#FFC907"/>
<stop offset="1" stop-color="#FAA619"/>
</linearGradient>
<clipPath id="clip0_3_554">
<rect width="108" height="108" fill="white"/>
</clipPath>
</defs>
</svg>
