<svg width="108" height="108" viewBox="0 0 108 108" fill="none" xmlns="http://www.w3.org/2000/svg">
<g clip-path="url(#clip0_3_559)">
<rect x="-0.00012207" y="-1.52588e-05" width="108" height="108" fill="white"/>
<path d="M22.7316 62.4632C27.554 62.4632 31.4632 58.554 31.4632 53.7316C31.4632 48.9093 27.554 45 22.7316 45C17.9093 45 14 48.9093 14 53.7316C14 58.554 17.9093 62.4632 22.7316 62.4632Z" fill="#00AED6"/>
<path d="M22.7316 62.4632C27.554 62.4632 31.4632 58.554 31.4632 53.7316C31.4632 48.9093 27.554 45 22.7316 45C17.9093 45 14 48.9093 14 53.7316C14 58.554 17.9093 62.4632 22.7316 62.4632Z" fill="#00AED6"/>
<path fill-rule="evenodd" clip-rule="evenodd" d="M27.8174 53.4597C27.7531 52.3509 26.8095 51.4998 25.7 51.5496H20.1846C19.9836 51.5496 19.8207 51.3867 19.8207 51.1858C19.8207 50.9849 19.9836 50.822 20.1846 50.822H25.7727C25.7425 50.0671 25.2277 49.4184 24.4994 49.2176C22.8712 48.9302 21.2052 48.9302 19.577 49.2176C18.6514 49.4456 17.9591 50.2158 17.8307 51.1603C17.5724 52.8739 17.5724 54.6166 17.8307 56.3302C18.0273 57.3276 18.8189 58.1004 19.8208 58.273C21.8419 58.524 23.8863 58.524 25.9074 58.273C26.8062 58.089 27.4863 57.3503 27.5956 56.4393C27.7765 55.457 27.8509 54.458 27.8174 53.4597ZM26.0056 54.6821V55.0059C26.0056 55.2068 25.8427 55.3697 25.6418 55.3697C25.4409 55.3697 25.278 55.2068 25.278 55.0059V54.6821C25.1617 54.5802 25.0954 54.4329 25.0961 54.2783C25.0961 53.9769 25.3404 53.7325 25.6418 53.7325C25.9432 53.7325 26.1875 53.9769 26.1875 54.2783C26.1882 54.4329 26.1219 54.5802 26.0056 54.6821V54.6821Z" fill="white"/>
<path d="M38.3658 58.0782C39.1069 59.1355 40.3393 59.7378 41.6288 59.6728C43.1494 59.6728 44.2679 58.7014 44.2679 57.3811V56.6848H44.231C43.3978 57.499 42.2604 57.9249 41.0973 57.858C39.2599 57.9107 37.5374 56.9665 36.5936 55.3892C35.6497 53.8118 35.6318 51.8476 36.5468 50.2534C37.4618 48.6591 39.1669 47.6837 41.0049 47.703C42.1901 47.627 43.3551 48.0373 44.231 48.8393H44.2679V47.8864H46.8715V57.3449C46.8715 60.0941 44.69 62.0006 41.6288 62.0006C39.6237 62.11 37.6877 61.2511 36.4231 59.6912L38.3658 58.0782ZM44.1585 52.1939C44.1585 51.0939 42.9121 50.0856 41.5193 50.0856C39.7585 50.0856 38.5861 51.1494 38.5861 52.7439C38.5339 53.4994 38.8178 54.2394 39.362 54.7661C39.9062 55.2927 40.6551 55.5523 41.4085 55.4754C42.9306 55.4754 44.1585 54.5218 44.1585 53.3301V52.1939ZM53.6902 47.6114C56.8622 47.6114 59.1716 49.8661 59.1716 52.7439C59.1716 55.6218 56.8622 57.8764 53.6902 57.8764C51.7763 58.0019 49.9515 57.052 48.9565 55.4123C47.9614 53.7725 47.9614 51.7153 48.9565 50.0756C49.9515 48.4358 51.7763 47.4859 53.6902 47.6114ZM53.6902 49.994C52.1741 50.0043 50.9525 51.2399 50.9593 52.7559C50.9662 54.272 52.1989 55.4965 53.715 55.4932C55.2311 55.4899 56.4584 54.26 56.4586 52.7439C56.493 52.0013 56.2117 51.2788 55.6843 50.7549C55.1569 50.231 54.4325 49.9546 53.6902 49.994ZM60.6382 47.8864H63.2418V48.7476H63.2788C64.1295 47.9653 65.258 47.5561 66.4124 47.6114C69.2075 47.6618 71.4483 49.9394 71.4534 52.7349C71.4584 55.5303 69.2257 57.8159 66.4309 57.8764C65.3276 57.9019 64.2505 57.5384 63.3882 56.8496H63.3512V61.7256H60.6382V47.8864ZM65.9918 50.0124C64.5607 50.0124 63.3512 51.0207 63.3512 52.1207V53.3486C63.3512 54.5218 64.5251 55.4931 66.0088 55.4931C67.5223 55.4884 68.7454 54.2577 68.7407 52.7443C68.7359 51.2308 67.5052 50.0077 65.9918 50.0124ZM76.568 51.8088C78.3459 51.5707 78.8774 51.3142 78.8774 50.8189C78.8774 50.1773 78.1995 49.7929 77.155 49.7929C76.0295 49.6976 75.0023 50.4364 74.7347 51.5338L72.1681 51.0023C72.5348 49.0226 74.5699 47.6114 77.0811 47.6114C79.922 47.6114 81.6828 49.0595 81.6828 51.4236V57.6014H79.2441V56.5384H79.2071C78.3805 57.4698 77.1679 57.9643 75.9257 57.8764C73.7811 57.8764 72.2974 56.7033 72.2974 54.9801C72.2975 53.1653 73.5069 52.2309 76.568 51.8088ZM79.0977 52.8356H79.0608C78.822 53.1838 78.309 53.3856 76.9901 53.6236C75.3942 53.9171 74.8271 54.2283 74.8271 54.7968C74.8271 55.3837 75.3032 55.6402 76.3293 55.6402C77.8883 55.6402 79.0977 54.9254 79.0977 53.9903V52.8356ZM86.5943 57.0699L82.1035 47.8864H85.0922L88.0425 54.2283H88.0794L90.9942 47.8864H94L87.2737 61.7256H84.285L86.5943 57.0699Z" fill="black"/>
</g>
<defs>
<clipPath id="clip0_3_559">
<rect width="108" height="108" fill="white"/>
</clipPath>
</defs>
</svg>
